<?xml version="1.0" encoding="utf-8"?>
<!-- Svg Vector Icons : http://www.onlinewebfonts.com/icon -->
<!DOCTYPE svg PUBLIC "-//W3C//DTD SVG 1.1//EN" "http://www.w3.org/Graphics/SVG/1.1/DTD/svg11.dtd">
<svg version="1.1" xmlns="http://www.w3.org/2000/svg" xmlns:xlink="http://www.w3.org/1999/xlink" x="0px" y="0px" viewBox="0 0 1000 1000" enable-background="new 0 0 1000 1000" xml:space="preserve">
<metadata> Svg Vector Icons : http://www.onlinewebfonts.com/icon </metadata>
<g><g transform="translate(0.000000,511.000000) scale(0.100000,-0.100000)"><path d="M6911.2,2416.2l-62.4-134.1l-2779-931.7C2541.5,839.5,1256,421,1212.1,421s-90.2-13.9-104-32.4c-13.9-18.5-143.3-69.4-284.4-113.3l-261.3-80.9v205.8v205.8h346.8H1256v809.2v809.2H678H100v-809.2V605.9h138.7h138.7V187.5c0-386.1,2.3-416.2,41.6-404.6c217.3,67,584.9,180.3,635.8,198.8l62.4,20.8v-323.7v-321.4H608.6H100v-208.1v-208.1h508.6h508.6v-71.7c0-104,64.7-226.6,141-263.6c48.6-25.4,157.2-34.7,443.9-34.7h379.2l25.4,87.9c37,124.9,194.2,358.4,284.4,427.7c261.3,194.2,601.1,247.4,897.1,143.3c224.3-78.6,511-381.5,548-580.3l13.9-78.6h1949h1949l16.2,64.7c6.9,34.7,41.6,115.6,71.7,178c312.1,626.5,1299.4,621.9,1611.5-4.6c30-60.1,62.4-138.7,71.7-173.4c13.9-57.8,25.4-64.7,115.6-64.7c124.8,0,210.4,62.4,247.4,180.3c16.2,57.8,20.8,372.2,16.2,964.1l-6.9,878.6l-62.4,127.2c-69.4,141-272.8,453.2-416.2,640.4c-64.7,85.5-131.8,141-224.3,185c-124.8,62.4-145.6,64.7-547.9,71.7c-356.1,6.9-430,2.3-492.5-30.1c-138.7-71.7-141-85.5-141-1260V-735h-101.7h-101.7l-212.7,381.5c-115.6,210.4-217.3,381.5-224.3,381.5c-6.9,0-78.6-37-159.5-80.9c-129.5-71.7-161.8-80.9-319.1-80.9h-175.7v-300.6V-735h-208.1h-208.1v161.8v161.8h-393h-393v-161.8V-735h-693.6h-693.6v161.8v161.8H2920.7H1718.4v-198.8v-196.5l-108.7,6.9l-111,6.9l-6.9,224.3l-6.9,221.9l2434.6,811.5c1336.3,446.2,2434.5,806.9,2439.2,802.3c4.6-2.3-97.1-224.3-226.6-490.1c-129.5-265.9-300.6-621.9-381.5-788.4l-145.7-307.5H5924H6243l275.1,561.8c150.3,307.5,358.4,726,460.1,929.4l185,367.6l238.1,78.6l235.8,78.6v425.4V2548h-330.6h-330.6L6911.2,2416.2z M9355,867.2l270.5-432.3V196.7V-41.4h-693.6h-693.6v670.5v670.5h423.1h420.8L9355,867.2z M7308.8-600.9l74-134.1h-104h-104v178C7174.8-355.8,7172.5-355.8,7308.8-600.9z"/><path d="M2798.1-896.9c-141-37-254.3-104-360.7-219.6c-138.7-152.6-194.2-286.7-196.5-485.5c0-275.1,141-513.3,383.8-649.7c111-60.1,143.3-67.1,342.2-67.1c182.6,0,235.8,9.3,316.8,53.2c298.2,159.5,455.5,467,397.7,783.8C3607.3-1074.9,3188.9-799.8,2798.1-896.9z M3225.8-1232.1c97.1-64.7,203.5-249.7,203.5-358.4c0-205.8-141-395.4-337.6-453.1c-113.3-32.4-136.4-32.4-249.7,0c-189.6,55.5-337.6,247.4-337.6,439.3c0,166.4,154.9,381.5,305.2,427.7C2934.5-1137.3,3121.8-1162.8,3225.8-1232.1z"/><path d="M8430.2-915.4c-178-64.7-298.2-152.6-386.1-289c-145.7-217.3-164.1-460.1-60.1-707.5c67.1-154.9,259-330.6,418.5-383.8c159.5-53.2,411.6-39.3,557.2,30c432.4,212.7,545.6,781.5,224.3,1144.5C9003.5-915.4,8679.9-827.5,8430.2-915.4z M8827.8-1195.1c180.3-83.2,265.9-219.6,265.9-423.1c0-332.9-363-545.6-665.8-390.7c-265.9,136.4-316.7,527.1-92.5,735.2C8464.9-1151.2,8666-1118.8,8827.8-1195.1z"/></g></g>
</svg>